<svg xmlns="http://www.w3.org/2000/svg" width="512" height="512" viewBox="0 0 512 512" fill="#fff"><path d="m216 32a16.002 16.002 0 0 0-15.814 13.566l-9.2969 60.428c-11.481 4.9327-22.338 11.149-32.404 18.553l-56.816-22.1a16.002 16.002 0 0 0-19.656 6.9121l-40 69.281a16.002 16.002 0 0 0 3.8418 20.479l47.523 38.137c-0.76712 6.169-1.3149 12.362-1.377 18.584a16.002 16.002 0 0 0 0 0.32032c0.06208 6.2215 0.60984 12.415 1.377 18.584l-47.523 38.137a16.002 16.002 0 0 0-3.8418 20.479l40 69.281a16.002 16.002 0 0 0 19.656 6.9121l56.816-22.1c10.066 7.4035 20.924 13.62 32.404 18.553l9.2969 60.428a16.002 16.002 0 0 0 15.814 13.566h80a16.002 16.002 0 0 0 15.814-13.566l9.2969-60.428c11.481-4.9327 22.338-11.149 32.404-18.553l56.816 22.1a16.002 16.002 0 0 0 19.656-6.9121l40-69.281a16.002 16.002 0 0 0-3.8418-20.479l-47.523-38.137c0.76711-6.169 1.3149-12.362 1.377-18.584a16.002 16.002 0 0 0 0-0.1875c-0.0109-6.2962-0.51872-12.568-1.252-18.816l47.398-38.037a16.002 16.002 0 0 0 3.8418-20.479l-40-69.281a16.002 16.002 0 0 0-19.656-6.9121l-56.641 22.029c-10.124-7.5225-21.062-13.839-32.637-18.85l-9.2402-60.061a16.002 16.002 0 0 0-15.814-13.566zm40 152c39.575 0 72 32.425 72 72s-32.425 72-72 72-72-32.425-72-72 32.425-72 72-72z"/></svg>